<svg xmlns="http://www.w3.org/2000/svg" viewBox="0 0 32 32">

  <!-- Fond arrondi brun -->
  <rect width="32" height="32" rx="7" fill="#2E2A25"/>

  <!-- Cheminée -->
  <rect x="20" y="8" width="4" height="6" rx="1" fill="#b8694a"/>

  <!-- Toit (triangle) -->
  <polygon points="16,4 3,16 29,16" fill="#C97B5A"/>

  <!-- Corps de la maison -->
  <rect x="6" y="16" width="20" height="12" rx="1.5" fill="#C97B5A"/>

  <!-- Fenêtre gauche -->
  <rect x="8.5" y="18" width="5" height="4" rx="1" fill="#F5EFE0" opacity="0.85"/>

  <!-- Cœur (porte) centré -->
  <path d="M16,27
    C16,27 11,23.2 11,20.6
    C11,19 12.2,18 13.6,18
    C14.6,18 15.4,18.6 16,19.4
    C16.6,18.6 17.4,18 18.4,18
    C19.8,18 21,19 21,20.6
    C21,23.2 16,27 16,27Z"
    fill="#F5EFE0"/>

</svg>
