<svg xmlns="http://www.w3.org/2000/svg" viewBox="0 0 32 32">
  <!-- Background circle -->
  <circle cx="16" cy="16" r="16" fill="#2E2A25"/>

  <!-- Letter C — arc path, terracotta -->
  <path d="M21 9.5
    A8.5 8.5 0 1 0 21 22.5
    L21 22.5
    A6 6 0 0 1 21 19
    A5.2 5.2 0 1 1 21 13
    A6 6 0 0 1 21 9.5Z"
    fill="#C97B5A"/>

  <!-- Heart accent (top right) -->
  <path d="M22.5 7
    C22.5 6.2 23.8 5.5 24.5 6.5
    C25.2 5.5 26.5 6.2 26.5 7
    C26.5 8 24.5 9.5 24.5 9.5
    C24.5 9.5 22.5 8 22.5 7Z"
    fill="#C97B5A" opacity="0.75"/>
</svg>
